<?xml version="1.0" encoding="UTF-8" standalone="no"?>
<!DOCTYPE svg PUBLIC "-//W3C//DTD SVG 1.1//EN" "http://www.w3.org/Graphics/SVG/1.1/DTD/svg11.dtd">
<svg width="100%" height="100%" viewBox="0 0 1002 253" version="1.1" xmlns="http://www.w3.org/2000/svg" xmlns:xlink="http://www.w3.org/1999/xlink" xml:space="preserve" xmlns:serif="http://www.serif.com/" style="fill-rule:evenodd;clip-rule:evenodd;stroke-linejoin:round;stroke-miterlimit:2;">
    <g transform="matrix(1,0,0,1,-249.888,-377.1)">
        <g>
            <g transform="matrix(1,0,0,1,316.283,629.08)">
                <path d="M0,-46.714C0.604,-46.7 1.316,-46.692 2.031,-46.692C4.125,-46.692 6.28,-46.764 8.435,-46.908C8.673,-46.925 8.908,-46.943 9.147,-46.96C30.669,-23.233 61.708,-8.314 96.17,-8.314C116.055,-8.314 134.799,-13.277 151.203,-22.035C156.818,-25.023 162.124,-28.5 167.153,-32.323L167.153,-21.762C164.05,-19.64 160.886,-17.603 157.594,-15.759C139.42,-5.574 118.48,0.246 96.17,0.246C56.568,0.246 21.165,-18.138 -1.98,-46.808C-1.323,-46.783 -0.656,-46.724 0,-46.714" style="fill:rgb(26,26,26);fill-rule:nonzero;"/>
            </g>
            <g transform="matrix(1,0,0,1,521.242,432.871)">
                <path d="M0,10.33C-2.799,9.907 -5.655,9.476 -8.527,9.042C-29.229,-24.655 -66.419,-47.212 -108.788,-47.212C-169.946,-47.212 -220.312,-0.245 -225.808,59.48C-228.061,61.392 -230.349,63.17 -232.715,64.788C-233.417,65.265 -234.094,65.67 -234.78,66.101C-232.538,-1.472 -176.896,-55.771 -108.788,-55.771C-60.809,-55.771 -19.014,-28.838 2.293,10.69C1.528,10.57 0.772,10.454 0,10.33" style="fill:rgb(26,26,26);fill-rule:nonzero;"/>
            </g>
            <path d="M343.602,492.848C343.602,491.718 344.518,490.803 345.647,490.803C346.777,490.803 347.693,491.718 347.693,492.848C347.693,493.978 346.777,494.893 345.647,494.893C344.518,494.893 343.602,493.978 343.602,492.848" style="fill:rgb(26,26,26);fill-rule:nonzero;stroke:rgb(234,16,16);stroke-width:1px;"/>
            <path d="M251.122,539.802C255.373,547.733 275.942,565.877 305.584,570.1C309.093,570.584 312.716,570.899 316.454,570.955C318.907,571.013 321.417,570.955 323.956,570.785C363.298,568.217 398.988,562.397 439.043,585.705C449.97,592.067 459.47,599.513 467.487,607.045C469.741,609.127 471.88,611.239 473.877,613.322C512.449,591.725 538.553,550.443 538.553,503.199C538.553,486.538 535.301,470.59 529.395,456.012C526.171,455.527 522.833,455.013 519.438,454.471C503.405,452.046 485.831,449.393 469.284,446.939C469.284,446.939 474.505,426.427 457.388,418.41C434.193,407.54 417.932,427.654 417.932,427.654C417.932,427.654 411.883,419.58 403.724,421.805C395.365,424.087 394.595,433.473 394.595,433.473C394.595,433.473 361.473,442.574 339.99,463.344C323.186,479.548 310.862,496.209 294.971,507.078C292.318,508.876 289.579,510.531 286.669,511.986C284.729,512.984 282.704,513.897 280.621,514.696C256.942,523.797 246.015,530.359 251.122,539.802" style="fill:rgb(26,26,26);fill-rule:nonzero;"/>
            <path d="M263.304,540.914C263.304,540.914 273.688,535.437 271.149,526.164C271.149,526.164 277.968,524.91 287.439,519.717C289.95,518.348 292.66,516.721 295.485,514.725C300.306,511.329 305.441,506.994 310.491,501.402C346.866,461.204 361.644,449.507 392.427,440.035C394.909,439.265 397.59,438.866 400.358,438.694C388.318,443.287 368.805,452.902 349.034,472.131C316.996,503.256 293.002,527.192 308.066,533.297C347.636,549.33 382.384,479.234 409.686,477.037C433.537,475.126 476.16,485.939 488.028,475.811C499.382,482.401 516.5,497.95 507.143,529.132C493.677,574.036 468.913,548.931 441.953,536.178C414.993,523.426 349.462,557.29 314.485,563.852C314.485,563.852 327.608,558.403 338.535,548.189C338.535,548.189 323.5,555.635 309.122,559.145C306.098,559.886 303.073,560.456 300.249,560.743C297.282,561.028 294.515,561.028 292.09,560.571C276.427,557.661 263.304,540.914 263.304,540.914" style="fill:white;fill-rule:nonzero;"/>
            <path d="M341.05,495.086C341.05,498.785 343.622,501.865 347.069,502.685C340.955,504.218 336.906,501.875 336.906,501.875C337.935,498.162 339.481,495.33 341.318,493.159C341.16,493.778 341.05,494.417 341.05,495.086" style="fill:white;fill-rule:nonzero;"/>
            <path d="M356.709,495.086C356.709,491.304 354.026,488.147 350.459,487.416C357.837,485.397 365.177,487.671 365.177,487.671C362.075,492.252 359.041,495.527 356.178,497.863C356.508,496.997 356.709,496.068 356.709,495.086" style="fill:white;fill-rule:nonzero;"/>
            <g transform="matrix(1,0,0,1,611.589,513.413)">
                <path d="M0,-20.4L0,-3.962L-23.805,-3.962L-23.805,57.636L-41.949,57.636L-41.949,-78.036L3.033,-78.036L3.033,-61.598L-23.805,-61.598L-23.805,-20.4L0,-20.4Z" style="fill:rgb(26,26,26);fill-rule:nonzero;"/>
            </g>
            <g transform="matrix(1,0,0,1,648.819,505.668)">
                <path d="M0,-4.91L11.909,-4.91C17.321,-4.91 20.027,-8.184 20.027,-14.734L20.027,-44.022C20.027,-50.572 17.321,-53.853 11.909,-53.853L0,-53.853L0,-4.91ZM-18.145,-70.291L17.386,-70.291C31.243,-70.291 38.171,-62.539 38.171,-47.049L38.171,-13.603C38.171,-1.759 34.577,5.738 27.4,8.882L40.054,65.381L22.864,65.381L10.955,10.581L0,10.581L0,65.381L-18.145,65.381L-18.145,-70.291Z" style="fill:rgb(26,26,26);fill-rule:nonzero;"/>
            </g>
            <g transform="matrix(1,0,0,1,705.88,435.377)">
                <path d="M0,135.672L0,0L44.982,0L44.982,16.439L18.145,16.439L18.145,57.636L41.949,57.636L41.949,74.074L18.145,74.074L18.145,119.234L44.982,119.234L44.982,135.672L0,135.672Z" style="fill:rgb(26,26,26);fill-rule:nonzero;"/>
            </g>
            <g transform="matrix(1,0,0,1,796.577,554.61)">
                <path d="M0,-102.795L0,16.438L-18.145,16.438L-18.145,-102.795L-35.519,-102.795L-35.519,-119.233L17.386,-119.233L17.386,-102.795L0,-102.795Z" style="fill:rgb(26,26,26);fill-rule:nonzero;"/>
            </g>
            <g transform="matrix(1,0,0,1,846.265,451.815)">
                <path d="M0,102.795L13.608,102.795C18.394,102.795 20.785,100.841 20.785,96.939L20.785,66.892C20.785,60.467 17.19,57.257 10.014,57.257L0,57.257L0,102.795ZM0,40.818L8.511,40.818C15.426,40.818 18.903,37.544 18.903,30.988L18.903,9.831C18.903,3.281 16.184,-0 10.772,-0L0,-0L0,40.818ZM24.001,49.512C33.949,52.283 38.93,57.446 38.93,65.003L38.93,99.017C38.93,112.494 32.054,119.233 18.328,119.233L-18.145,119.233L-18.145,-16.438L12.851,-16.438C28.969,-16.438 37.034,-8.249 37.034,8.125L37.034,34.204C37.034,42.015 32.694,46.799 24.001,48.564L24.001,49.512Z" style="fill:rgb(26,26,26);fill-rule:nonzero;"/>
            </g>
            <g transform="matrix(1,0,0,1,942.073,501.511)">
                <path d="M0,3.404L0,-41.754C0,-47.049 -2.654,-49.696 -7.936,-49.696L-12.851,-49.696C-18.145,-49.696 -20.785,-47.049 -20.785,-41.754L-20.785,3.404L0,3.404ZM-20.785,69.538L-38.93,69.538L-38.93,-42.891C-38.93,-58.382 -31.688,-66.134 -17.204,-66.134L-3.596,-66.134C10.889,-66.134 18.131,-58.382 18.131,-42.891L18.131,69.538L0,69.538L0,19.843L-20.785,19.843L-20.785,69.538Z" style="fill:rgb(26,26,26);fill-rule:nonzero;"/>
            </g>
            <g transform="matrix(1,0,0,1,998.18,451.815)">
                <path d="M0,102.795L13.608,102.795C18.393,102.795 20.785,100.781 20.785,96.749L20.785,9.831C20.785,3.281 18.079,-0 12.667,-0L0,-0L0,102.795ZM-18.145,119.233L-18.145,-16.438L13.412,-16.438C30.419,-16.438 38.93,-7.746 38.93,9.641L38.93,99.579C38.93,112.684 31.674,119.233 17.19,119.233L-18.145,119.233Z" style="fill:rgb(26,26,26);fill-rule:nonzero;"/>
            </g>
            <g transform="matrix(1,0,0,1,1084.92,485.07)">
                <path d="M0,36.284L0,19.845L27.583,19.845L27.583,85.978L-7.935,85.978C-21.923,85.978 -28.916,78.357 -28.916,63.115L-28.916,-26.451C-28.916,-41.942 -21.923,-49.694 -7.935,-49.694L4.536,-49.694C19.896,-49.694 27.583,-41.818 27.583,-26.072L27.583,-11.333L9.438,-11.333L9.438,-23.424C9.438,-29.974 6.863,-33.255 1.699,-33.255L-2.837,-33.255C-8.131,-33.255 -10.771,-29.974 -10.771,-23.424L-10.771,59.716C-10.771,66.265 -8.131,69.54 -2.837,69.54L9.438,69.54L9.438,36.284L0,36.284Z" style="fill:rgb(26,26,26);fill-rule:nonzero;"/>
            </g>
            <g transform="matrix(1,0,0,1,1131.01,435.377)">
                <path d="M0,135.672L0,0L44.981,0L44.981,16.439L18.145,16.439L18.145,57.636L41.949,57.636L41.949,74.074L18.145,74.074L18.145,119.234L44.981,119.234L44.981,135.672L0,135.672Z" style="fill:rgb(26,26,26);fill-rule:nonzero;"/>
            </g>
            <g transform="matrix(1,0,0,1,1210.95,505.668)">
                <path d="M0,-4.91L11.909,-4.91C17.32,-4.91 20.026,-8.184 20.026,-14.734L20.026,-44.022C20.026,-50.572 17.32,-53.853 11.909,-53.853L0,-53.853L0,-4.91ZM-18.145,-70.291L17.386,-70.291C31.243,-70.291 38.171,-62.539 38.171,-47.049L38.171,-13.603C38.171,-1.759 34.576,5.738 27.399,8.882L40.054,65.381L22.863,65.381L10.954,10.581L0,10.581L0,65.381L-18.145,65.381L-18.145,-70.291Z" style="fill:rgb(26,26,26);fill-rule:nonzero;"/>
            </g>
        </g>
    </g>
</svg>
